<svg xmlns="http://www.w3.org/2000/svg" width="24" height="24" viewBox="0 0 24 24" fill="#25D366">
  <path d="M17.47 14.38c-.3-.15-1.76-.87-2.03-.97-.27-.1-.47-.15-.67.15-.2.3-.77.97-.94 1.17-.17.2-.35.22-.65.07-.3-.15-1.25-.46-2.38-1.47-.88-.79-1.47-1.76-1.64-2.06-.17-.3-.02-.46.13-.61.13-.13.3-.35.45-.52.15-.17.2-.3.3-.5.1-.2.05-.37-.02-.52-.07-.15-.67-1.61-.92-2.21-.24-.58-.49-.5-.67-.51l-.57-.01c-.2 0-.52.07-.79.37-.27.3-1.04 1.02-1.04 2.48 0 1.46 1.06 2.87 1.21 3.07.15.2 2.1 3.2 5.08 4.49.71.31 1.26.49 1.69.63.71.23 1.36.19 1.87.12.57-.09 1.76-.72 2.01-1.41.25-.7.25-1.29.17-1.41-.07-.13-.27-.2-.57-.35zM12.04 21.5h-.01a9.5 9.5 0 0 1-4.83-1.32l-.35-.21-3.59.94.96-3.5-.23-.36a9.46 9.46 0 0 1-1.45-5.05c0-5.24 4.27-9.5 9.51-9.5 2.54 0 4.92.99 6.72 2.79a9.44 9.44 0 0 1 2.78 6.72c0 5.24-4.27 9.49-9.5 9.49zm8.09-17.58A11.4 11.4 0 0 0 12.04.5C5.75.5.63 5.62.63 11.91c0 2.01.53 3.98 1.53 5.71L.5 23.5l6.03-1.58a11.36 11.36 0 0 0 5.51 1.4h.01c6.28 0 11.4-5.12 11.4-11.41a11.34 11.34 0 0 0-3.32-8.02z"/>
</svg>
